<svg width="20" height="19" viewBox="0 0 20 19" fill="none" xmlns="http://www.w3.org/2000/svg">
<path d="M5.36622 2.69508C5.59095 1.76832 6.90901 1.76832 7.13374 2.69508L7.75208 5.24512C7.83232 5.576 8.09066 5.83434 8.42154 5.91457L10.9716 6.53292C11.8983 6.75765 11.8983 8.07571 10.9716 8.30043L8.42154 8.91878C8.09066 8.99901 7.83232 9.25736 7.75208 9.58824L7.13374 12.1383C6.90901 13.065 5.59095 13.065 5.36622 12.1383L4.74788 9.58824C4.66764 9.25736 4.4093 8.99901 4.07842 8.91878L1.52838 8.30043C0.601624 8.07571 0.601623 6.75765 1.52838 6.53292L4.07842 5.91457C4.4093 5.83434 4.66764 5.576 4.74788 5.24512L5.36622 2.69508Z" fill="#20262C"/>
<path d="M12.7895 11.5944C12.9278 11.0241 13.7389 11.0241 13.8772 11.5944L14.2577 13.1637C14.3071 13.3673 14.466 13.5263 14.6697 13.5756L16.2389 13.9562C16.8092 14.0945 16.8092 14.9056 16.2389 15.0439L14.6697 15.4244C14.466 15.4738 14.3071 15.6327 14.2577 15.8364L13.8772 17.4056C13.7389 17.9759 12.9278 17.9759 12.7895 17.4056L12.4089 15.8364C12.3596 15.6327 12.2006 15.4738 11.997 15.4244L10.4277 15.0439C9.8574 14.9056 9.8574 14.0945 10.4277 13.9562L11.997 13.5756C12.2006 13.5263 12.3596 13.3673 12.4089 13.1637L12.7895 11.5944Z" fill="#20262C"/>
<path d="M15.4764 2.59321C15.5672 2.21894 16.0995 2.21894 16.1902 2.59321L16.4399 3.62303C16.4723 3.75666 16.5767 3.86099 16.7103 3.89339L17.7401 4.14311C18.1144 4.23386 18.1144 4.76616 17.7401 4.85691L16.7103 5.10663C16.5767 5.13903 16.4723 5.24336 16.4399 5.37699L16.1902 6.40681C16.0995 6.78108 15.5672 6.78108 15.4764 6.40681L15.2267 5.37699C15.1943 5.24336 15.09 5.13903 14.9563 5.10663L13.9265 4.85691C13.5522 4.76616 13.5522 4.23386 13.9265 4.14311L14.9563 3.89339C15.09 3.86099 15.1943 3.75666 15.2267 3.62303L15.4764 2.59321Z" fill="#20262C"/>
<path fill-rule="evenodd" clip-rule="evenodd" d="M15.8333 2.77592L15.6295 3.61644C15.548 3.95241 15.2857 4.21473 14.9497 4.2962L14.1092 4.50001L14.9497 4.70382C15.2857 4.78529 15.548 5.04761 15.6295 5.38358L15.8333 6.2241L16.0371 5.38358C16.1186 5.04761 16.3809 4.78529 16.7169 4.70382L17.5574 4.50001L16.7169 4.2962C16.3809 4.21473 16.1186 3.95241 16.0371 3.61644L15.8333 2.77592ZM16.2412 2.32081C16.1375 1.89308 15.5291 1.89308 15.4254 2.32081L15.14 3.49775C15.103 3.65047 14.9838 3.7697 14.8311 3.80673L13.6541 4.09212C13.2264 4.19584 13.2264 4.80418 13.6541 4.9079L14.8311 5.19329C14.9838 5.23032 15.103 5.34955 15.14 5.50227L15.4254 6.67921C15.5291 7.10694 16.1375 7.10694 16.2412 6.67921L16.5266 5.50227C16.5636 5.34955 16.6829 5.23032 16.8356 5.19329L18.0125 4.9079C18.4402 4.80418 18.4402 4.19584 18.0125 4.09212L16.8356 3.80673C16.6829 3.7697 16.5636 3.65047 16.5266 3.49775L16.2412 2.32081Z" fill="#20262C"/>
<path d="M5.83331 18.6667C5.37308 18.6667 4.99998 18.2936 4.99998 17.8333C4.99998 17.3731 5.37308 17 5.83331 17C6.29355 17 6.66665 17.3731 6.66665 17.8333C6.66665 18.2936 6.29355 18.6667 5.83331 18.6667Z" fill="#20262C"/>
<path d="M1.66665 15.3333C1.20641 15.3333 0.833313 14.9602 0.833313 14.5C0.833313 14.0398 1.20641 13.6667 1.66665 13.6667C2.12688 13.6667 2.49998 14.0398 2.49998 14.5C2.49998 14.9602 2.12688 15.3333 1.66665 15.3333Z" fill="#20262C"/>
<path d="M10.8333 2.00001C10.3731 2.00001 9.99998 1.62691 9.99998 1.16668C9.99998 0.706439 10.3731 0.333343 10.8333 0.333344C11.2935 0.333344 11.6666 0.70644 11.6666 1.16668C11.6666 1.62691 11.2935 2.00001 10.8333 2.00001Z" fill="#20262C"/>
<path d="M18.3333 11.1667C17.8731 11.1667 17.5 10.7936 17.5 10.3333C17.5 9.87311 17.8731 9.50001 18.3333 9.50001C18.7935 9.50001 19.1666 9.87311 19.1666 10.3333C19.1666 10.7936 18.7935 11.1667 18.3333 11.1667Z" fill="#20262C"/>
</svg>
