<svg width="12" height="11" viewBox="0 0 12 11" fill="none" xmlns="http://www.w3.org/2000/svg">
<path d="M3.21975 1.41704C3.35458 0.860986 4.14542 0.860986 4.28025 1.41704L4.65126 2.94706C4.6994 3.14559 4.85441 3.3006 5.05294 3.34874L6.58296 3.71975C7.13901 3.85458 7.13901 4.64542 6.58296 4.78025L5.05294 5.15126C4.85441 5.1994 4.6994 5.35441 4.65126 5.55294L4.28025 7.08296C4.14542 7.63901 3.35458 7.63901 3.21975 7.08296L2.84874 5.55294C2.8006 5.35441 2.64559 5.1994 2.44706 5.15126L0.917042 4.78025C0.360986 4.64542 0.360986 3.85458 0.917041 3.71975L2.44706 3.34874C2.64559 3.3006 2.8006 3.14559 2.84874 2.94706L3.21975 1.41704Z" fill="#DF1B41"/>
<path d="M7.67369 6.75664C7.75667 6.41445 8.24333 6.41445 8.32631 6.75664L8.55462 7.69819C8.58425 7.82036 8.67964 7.91575 8.80181 7.94538L9.74336 8.17369C10.0855 8.25667 10.0855 8.74333 9.74336 8.82631L8.80181 9.05462C8.67964 9.08425 8.58425 9.17964 8.55462 9.30181L8.32631 10.2434C8.24333 10.5855 7.75667 10.5855 7.67369 10.2434L7.44538 9.30181C7.41575 9.17964 7.32036 9.08425 7.19819 9.05462L6.25664 8.82631C5.91445 8.74333 5.91445 8.25667 6.25664 8.17369L7.19819 7.94538C7.32036 7.91575 7.41575 7.82036 7.44538 7.69819L7.67369 6.75664Z" fill="#DF1B41"/>
<path d="M9.28586 1.35592C9.34031 1.13136 9.65969 1.13136 9.71414 1.35592L9.86397 1.97381C9.88341 2.05399 9.94601 2.11659 10.0262 2.13603L10.6441 2.28586C10.8686 2.34031 10.8686 2.65969 10.6441 2.71414L10.0262 2.86397C9.94601 2.88341 9.88341 2.94601 9.86397 3.02619L9.71414 3.64408C9.65969 3.86864 9.34031 3.86864 9.28586 3.64408L9.13603 3.02619C9.11659 2.94601 9.05399 2.88341 8.97381 2.86397L8.35592 2.71414C8.13136 2.65969 8.13136 2.34031 8.35592 2.28586L8.97381 2.13603C9.05399 2.11659 9.11659 2.05399 9.13603 1.97381L9.28586 1.35592Z" fill="#DF1B41"/>
<path fill-rule="evenodd" clip-rule="evenodd" d="M9.5 1.46555L9.37771 1.96986C9.32883 2.17144 9.17144 2.32883 8.96986 2.37771L8.46555 2.5L8.96986 2.62229C9.17144 2.67117 9.32883 2.82856 9.37771 3.03014L9.5 3.53445L9.62229 3.03014C9.67117 2.82856 9.82856 2.67117 10.0301 2.62229L10.5345 2.5L10.0301 2.37771C9.82856 2.32883 9.67117 2.17144 9.62229 1.96986L9.5 1.46555ZM9.74473 1.19248C9.6825 0.93584 9.3175 0.93584 9.25527 1.19248L9.08403 1.89864C9.06181 1.99027 8.99027 2.06181 8.89864 2.08403L8.19248 2.25527C7.93584 2.3175 7.93584 2.6825 8.19248 2.74473L8.89864 2.91597C8.99027 2.93819 9.06181 3.00973 9.08403 3.10136L9.25527 3.80752C9.3175 4.06416 9.6825 4.06416 9.74473 3.80752L9.91597 3.10136C9.93819 3.00973 10.0097 2.93819 10.1014 2.91597L10.8075 2.74473C11.0642 2.6825 11.0642 2.3175 10.8075 2.25527L10.1014 2.08403C10.0097 2.06181 9.93819 1.99027 9.91597 1.89864L9.74473 1.19248Z" fill="#DF1B41"/>
<path d="M3.5 11C3.22386 11 3 10.7761 3 10.5C3 10.2239 3.22386 10 3.5 10C3.77614 10 4 10.2239 4 10.5C4 10.7761 3.77614 11 3.5 11Z" fill="#DF1B41"/>
<path d="M1 9C0.723858 9 0.5 8.77614 0.5 8.5C0.5 8.22386 0.723858 8 1 8C1.27614 8 1.5 8.22386 1.5 8.5C1.5 8.77614 1.27614 9 1 9Z" fill="#DF1B41"/>
<path d="M6.5 1C6.22386 1 6 0.776142 6 0.5C6 0.223858 6.22386 -1.20706e-08 6.5 0C6.77614 1.20706e-08 7 0.223858 7 0.5C7 0.776142 6.77614 1 6.5 1Z" fill="#DF1B41"/>
<path d="M11 6.5C10.7239 6.5 10.5 6.27614 10.5 6C10.5 5.72386 10.7239 5.5 11 5.5C11.2761 5.5 11.5 5.72386 11.5 6C11.5 6.27614 11.2761 6.5 11 6.5Z" fill="#DF1B41"/>
</svg>
