<svg width="8" height="8" viewBox="0 0 8 8" fill="none" xmlns="http://www.w3.org/2000/svg">
<path d="M5.05939 3.9999L7.35939 1.69986C7.64939 1.40986 7.64939 0.929859 7.35939 0.639859C7.06939 0.349859 6.5894 0.349859 6.2994 0.639859L3.99939 2.9399L1.69936 0.639859C1.40936 0.349859 0.929365 0.349859 0.639375 0.639859C0.349375 0.929859 0.349375 1.40986 0.639375 1.69986L2.93939 3.9999L0.639375 6.2999C0.349375 6.5899 0.349375 7.0699 0.639375 7.3599C0.789375 7.5099 0.979364 7.5799 1.16936 7.5799C1.35936 7.5799 1.54936 7.5099 1.69936 7.3599L3.99939 5.0599L6.2994 7.3599C6.4494 7.5099 6.63939 7.5799 6.82939 7.5799C7.01939 7.5799 7.20939 7.5099 7.35939 7.3599C7.64939 7.0699 7.64939 6.5899 7.35939 6.2999L5.05939 3.9999Z" fill="white"/>
</svg>
