<svg width="20" height="20" viewBox="0 0 20 20" fill="none" xmlns="http://www.w3.org/2000/svg">
<path d="M5.36628 3.19505C5.59101 2.26829 6.90907 2.26829 7.1338 3.19505L7.75214 5.74509C7.83238 6.07597 8.09072 6.33431 8.4216 6.41454L10.9716 7.03289C11.8984 7.25762 11.8984 8.57568 10.9716 8.8004L8.4216 9.41875C8.09072 9.49898 7.83238 9.75733 7.75214 10.0882L7.1338 12.6382C6.90907 13.565 5.59101 13.565 5.36628 12.6382L4.74794 10.0882C4.6677 9.75733 4.40936 9.49898 4.07848 9.41875L1.52844 8.8004C0.601685 8.57568 0.601684 7.25762 1.52844 7.03289L4.07848 6.41454C4.40936 6.33431 4.6677 6.07597 4.74794 5.74509L5.36628 3.19505Z" fill="#FF5B00"/>
<path d="M12.7895 12.0944C12.9278 11.5241 13.7389 11.5241 13.8772 12.0944L14.2577 13.6636C14.3071 13.8673 14.4661 14.0262 14.6697 14.0756L16.239 14.4561C16.8093 14.5944 16.8093 15.4055 16.239 15.5438L14.6697 15.9243C14.4661 15.9737 14.3071 16.1327 14.2577 16.3363L13.8772 17.9056C13.7389 18.4759 12.9278 18.4759 12.7895 17.9056L12.409 16.3363C12.3596 16.1327 12.2006 15.9737 11.997 15.9243L10.4278 15.5438C9.85746 15.4055 9.85746 14.5944 10.4278 14.4561L11.997 14.0756C12.2006 14.0262 12.3596 13.8673 12.409 13.6636L12.7895 12.0944Z" fill="#FF5B00"/>
<path d="M15.4765 3.09318C15.5672 2.71891 16.0995 2.71891 16.1903 3.09318L16.44 4.123C16.4724 4.25663 16.5767 4.36096 16.7103 4.39336L17.7402 4.64308C18.1144 4.73383 18.1144 5.26613 17.7402 5.35688L16.7103 5.6066C16.5767 5.639 16.4724 5.74333 16.44 5.87696L16.1903 6.90678C16.0995 7.28105 15.5672 7.28105 15.4765 6.90678L15.2268 5.87696C15.1944 5.74333 15.09 5.639 14.9564 5.6066L13.9266 5.35688C13.5523 5.26613 13.5523 4.73383 13.9266 4.64308L14.9564 4.39336C15.09 4.36096 15.1944 4.25663 15.2268 4.123L15.4765 3.09318Z" fill="#FF5B00"/>
<path fill-rule="evenodd" clip-rule="evenodd" d="M15.8334 3.27589L15.6296 4.11641C15.5481 4.45238 15.2858 4.7147 14.9498 4.79617L14.1093 4.99998L14.9498 5.20379C15.2858 5.28526 15.5481 5.54758 15.6296 5.88355L15.8334 6.72407L16.0372 5.88355C16.1187 5.54758 16.381 5.28526 16.7169 5.20379L17.5575 4.99998L16.7169 4.79617C16.381 4.7147 16.1187 4.45238 16.0372 4.11641L15.8334 3.27589ZM16.2413 2.82078C16.1375 2.39305 15.5292 2.39305 15.4255 2.82078L15.1401 3.99772C15.1031 4.15043 14.9838 4.26967 14.8311 4.3067L13.6542 4.59209C13.2264 4.69581 13.2264 5.30415 13.6542 5.40787L14.8311 5.69326C14.9838 5.73029 15.1031 5.84952 15.1401 6.00224L15.4255 7.17918C15.5292 7.60691 16.1375 7.60691 16.2413 7.17918L16.5267 6.00224C16.5637 5.84952 16.6829 5.73029 16.8356 5.69326L18.0126 5.40787C18.4403 5.30415 18.4403 4.69581 18.0126 4.59209L16.8356 4.3067C16.6829 4.26967 16.5637 4.15043 16.5267 3.99772L16.2413 2.82078Z" fill="#FF5B00"/>
<path d="M5.83337 19.1666C5.37314 19.1666 5.00004 18.7935 5.00004 18.3333C5.00004 17.8731 5.37314 17.5 5.83337 17.5C6.29361 17.5 6.66671 17.8731 6.66671 18.3333C6.66671 18.7935 6.29361 19.1666 5.83337 19.1666Z" fill="#FF5B00"/>
<path d="M1.66671 15.8333C1.20647 15.8333 0.833374 15.4602 0.833374 15C0.833374 14.5397 1.20647 14.1666 1.66671 14.1666C2.12694 14.1666 2.50004 14.5397 2.50004 15C2.50004 15.4602 2.12694 15.8333 1.66671 15.8333Z" fill="#FF5B00"/>
<path d="M10.8334 2.49998C10.3731 2.49998 10 2.12688 10 1.66665C10 1.20641 10.3731 0.833313 10.8334 0.833313C11.2936 0.833313 11.6667 1.20641 11.6667 1.66665C11.6667 2.12688 11.2936 2.49998 10.8334 2.49998Z" fill="#FF5B00"/>
<path d="M18.3334 11.6666C17.8731 11.6666 17.5 11.2935 17.5 10.8333C17.5 10.3731 17.8731 9.99998 18.3334 9.99998C18.7936 9.99998 19.1667 10.3731 19.1667 10.8333C19.1667 11.2935 18.7936 11.6666 18.3334 11.6666Z" fill="#FF5B00"/>
</svg>
