<svg width="12" height="11" viewBox="0 0 12 11" fill="none" xmlns="http://www.w3.org/2000/svg">
<path d="M10.9823 4.88358L8.87294 6.70373L9.5156 9.42577C9.55105 9.57353 9.54192 9.72849 9.48936 9.87107C9.43679 10.0137 9.34315 10.1375 9.22025 10.2268C9.09736 10.3162 8.95074 10.3672 8.7989 10.3733C8.64706 10.3794 8.49682 10.3403 8.36716 10.2611L5.99997 8.8042L3.63138 10.2611C3.50173 10.3399 3.35168 10.3785 3.2001 10.3722C3.04852 10.3659 2.9022 10.3149 2.77957 10.2256C2.65693 10.1363 2.56346 10.0127 2.51093 9.87034C2.45839 9.72802 2.44914 9.57333 2.48435 9.42577L3.12935 6.70373L1.01997 4.88358C0.905267 4.78444 0.822311 4.65371 0.781463 4.50771C0.740615 4.36171 0.743685 4.20691 0.79029 4.06264C0.836896 3.91838 0.924971 3.79104 1.04352 3.69653C1.16206 3.60202 1.30582 3.54453 1.45685 3.53123L4.22247 3.30811L5.28935 0.726235C5.34709 0.585524 5.44538 0.465164 5.57171 0.380456C5.69804 0.295748 5.8467 0.250519 5.9988 0.250519C6.1509 0.250519 6.29956 0.295748 6.42589 0.380456C6.55222 0.465164 6.65051 0.585524 6.70825 0.726235L7.77466 3.30811L10.5403 3.53123C10.6916 3.54403 10.8358 3.6012 10.9548 3.69558C11.0737 3.78996 11.1622 3.91735 11.2091 4.06179C11.256 4.20623 11.2592 4.3613 11.2184 4.50757C11.1775 4.65384 11.0944 4.7848 10.9795 4.88405L10.9823 4.88358Z" fill="#F1B911"/>
</svg>
