<svg width="58" height="18" viewBox="0 0 58 18" fill="none" xmlns="http://www.w3.org/2000/svg">
<path d="M57.9542 10.3632C57.9542 10.8138 57.9242 11.2194 57.8641 11.5799H48.7385C48.8136 12.4812 49.1291 13.1872 49.6849 13.698C50.2407 14.2087 50.9242 14.4641 51.7353 14.4641C52.907 14.4641 53.7407 13.9608 54.2364 12.9544H57.6388C57.2782 14.1561 56.5873 15.1475 55.5658 15.9286C54.5443 16.6947 53.29 17.0778 51.8029 17.0778C50.6012 17.0778 49.5197 16.8149 48.5583 16.2892C47.6119 15.7484 46.8684 14.9898 46.3276 14.0134C45.8018 13.037 45.539 11.9104 45.539 10.6336C45.539 9.34174 45.8018 8.20762 46.3276 7.23122C46.8533 6.25483 47.5894 5.50375 48.5358 4.978C49.4821 4.45225 50.5712 4.18938 51.8029 4.18938C52.9896 4.18938 54.0486 4.44474 54.98 4.95547C55.9263 5.4662 56.6549 6.19474 57.1656 7.14109C57.6913 8.07242 57.9542 9.14646 57.9542 10.3632ZM54.687 9.46191C54.672 8.65075 54.3791 8.00483 53.8083 7.52414C53.2375 7.02843 52.539 6.78058 51.7128 6.78058C50.9317 6.78058 50.2707 7.02092 49.73 7.50161C49.2042 7.96727 48.8812 8.62071 48.7611 9.46191H54.687Z" fill="#20262C"/>
<path d="M40.3949 6.32993C40.8005 5.66899 41.3263 5.15075 41.9722 4.77521C42.6331 4.39968 43.3842 4.21191 44.2254 4.21191V7.52414H43.3917C42.4003 7.52414 41.6492 7.75697 41.1385 8.22264C40.6428 8.6883 40.3949 9.49946 40.3949 10.6561V16.875H37.2404V4.39216H40.3949V6.32993Z" fill="#20262C"/>
<path d="M28.4147 17.0778C27.213 17.0778 26.1314 16.8149 25.17 16.2892C24.2087 15.7484 23.4501 14.9898 22.8943 14.0134C22.3535 13.037 22.0831 11.9104 22.0831 10.6336C22.0831 9.35676 22.361 8.23015 22.9168 7.25375C23.4876 6.27736 24.2612 5.52629 25.2376 5.00054C26.214 4.45976 27.3031 4.18938 28.5048 4.18938C29.7065 4.18938 30.7956 4.45976 31.772 5.00054C32.7484 5.52629 33.5145 6.27736 34.0703 7.25375C34.6411 8.23015 34.9265 9.35676 34.9265 10.6336C34.9265 11.9104 34.6336 13.037 34.0477 14.0134C33.4769 14.9898 32.6958 15.7484 31.7044 16.2892C30.728 16.8149 29.6314 17.0778 28.4147 17.0778ZM28.4147 14.3289C28.9855 14.3289 29.5188 14.1937 30.0145 13.9233C30.5252 13.6379 30.9308 13.2173 31.2312 12.6615C31.5316 12.1057 31.6818 11.4297 31.6818 10.6336C31.6818 9.44689 31.3664 8.53809 30.7355 7.90719C30.1196 7.26127 29.361 6.9383 28.4597 6.9383C27.5585 6.9383 26.7999 7.26127 26.184 7.90719C25.5831 8.53809 25.2827 9.44689 25.2827 10.6336C25.2827 11.8203 25.5756 12.7366 26.1615 13.3825C26.7623 14.0134 27.5134 14.3289 28.4147 14.3289Z" fill="#20262C"/>
<path d="M17.8089 6.98337V13.022C17.8089 13.4426 17.9065 13.7505 18.1018 13.9458C18.3121 14.1261 18.6576 14.2162 19.1383 14.2162H20.6029V16.875H18.62C15.9612 16.875 14.6318 15.5832 14.6318 12.9995V6.98337H13.1447V4.39217H14.6318V1.30526H17.8089V4.39217H20.6029V6.98337H17.8089Z" fill="#20262C"/>
<path d="M5.83584 17.0327C4.73927 17.0327 3.74785 16.845 2.86159 16.4694C1.99034 16.0939 1.29936 15.5531 0.788626 14.8471C0.277897 14.1411 0.0150214 13.3074 0 12.346H3.37983C3.42489 12.992 3.65021 13.5027 4.05579 13.8782C4.47639 14.2538 5.04721 14.4415 5.76824 14.4415C6.50429 14.4415 7.08262 14.2688 7.50322 13.9233C7.92382 13.5628 8.13412 13.0971 8.13412 12.5263C8.13412 12.0606 7.99142 11.6776 7.70601 11.3771C7.4206 11.0767 7.06009 10.8439 6.62446 10.6786C6.20386 10.4984 5.61803 10.3031 4.86695 10.0928C3.84549 9.79238 3.0118 9.49946 2.36588 9.21406C1.73498 8.91363 1.1867 8.47049 0.72103 7.88466C0.270386 7.2838 0.0450644 6.48766 0.0450644 5.49625C0.0450644 4.56491 0.277897 3.75375 0.743562 3.06277C1.20923 2.37178 1.86266 1.84603 2.70386 1.48551C3.54506 1.10998 4.50644 0.922211 5.58798 0.922211C7.2103 0.922211 8.52468 1.32028 9.53112 2.11642C10.5526 2.89753 11.1159 3.9941 11.221 5.40612H7.75107C7.72103 4.86534 7.4882 4.42221 7.05258 4.07672C6.63197 3.7162 6.06867 3.53594 5.36266 3.53594C4.74678 3.53594 4.25107 3.69367 3.87554 4.00912C3.51502 4.32457 3.33476 4.78272 3.33476 5.38358C3.33476 5.80418 3.46996 6.15719 3.74034 6.4426C4.02575 6.71298 4.37124 6.9383 4.77682 7.11856C5.19742 7.2838 5.78326 7.47908 6.53433 7.7044C7.55579 8.00483 8.38948 8.30526 9.03541 8.60569C9.68133 8.90612 10.2371 9.35676 10.7028 9.95762C11.1685 10.5585 11.4013 11.3471 11.4013 12.3235C11.4013 13.1647 11.1835 13.9458 10.7479 14.6668C10.3122 15.3879 9.67382 15.9662 8.83262 16.4018C7.99142 16.8224 6.99249 17.0327 5.83584 17.0327Z" fill="#20262C"/>
</svg>
